<?xml version="1.0" standalone="no"?>
<!DOCTYPE svg PUBLIC "-//W3C//DTD SVG 20010904//EN"
 "http://www.w3.org/TR/2001/REC-SVG-20010904/DTD/svg10.dtd">
<svg version="1.0" xmlns="http://www.w3.org/2000/svg"
 width="300.000000pt" height="140.000000pt" viewBox="0 0 300.000000 140.000000"
 preserveAspectRatio="xMidYMid meet">
<metadata>
Created by potrace 1.10, written by Peter Selinger 2001-2011
</metadata>
<g transform="translate(0.000000,140.000000) scale(0.100000,-0.100000)"
fill="#000000" stroke="none">
<path d="M646 1355 c-11 -28 -7 -37 10 -21 18 18 30 20 39 6 3 -5 -3 -10 -13
-10 -17 0 -22 -12 -32 -84 -11 -69 -11 -98 1 -160 7 -42 16 -76 19 -76 3 0 4
46 2 103 -1 56 1 108 6 116 15 21 33 3 26 -27 -5 -25 -4 -25 7 -7 7 11 17 23
23 28 7 4 2 9 -11 13 -26 7 -28 25 -12 73 13 36 7 46 -32 56 -19 5 -28 2 -33
-10z"/>
<path d="M393 1350 c-19 -8 -23 -17 -23 -55 0 -39 -3 -47 -25 -55 -14 -5 -25
-14 -25 -20 0 -13 17 -13 25 0 4 6 9 8 13 6 6 -4 34 20 31 26 -5 11 24 88 33
88 7 0 9 -27 5 -87 -3 -48 -1 -80 3 -72 5 8 10 50 12 94 3 86 -2 94 -49 75z"/>
<path d="M477 1354 c-8 -8 5 -54 14 -48 14 8 11 -9 -7 -34 -14 -21 -14 -22 5
-22 11 0 23 -4 26 -10 3 -5 12 -10 18 -10 8 0 9 3 1 8 -18 12 -25 44 -13 58 7
9 7 19 0 32 -11 20 -35 34 -44 26z"/>
<path d="M748 1323 c-29 -7 -20 -21 10 -15 25 4 26 3 8 -10 -14 -11 -17 -22
-11 -46 3 -18 11 -30 16 -26 5 3 6 10 3 16 -5 7 -1 9 9 5 12 -4 18 0 23 18 13
51 -8 72 -58 58z"/>
<path d="M543 1295 c-3 -9 -2 -19 2 -23 4 -4 10 -1 12 6 3 6 19 12 36 12 24 0
28 3 17 10 -23 15 -60 12 -67 -5z"/>
<path d="M612 1268 c-5 -7 -13 -48 -17 -91 -6 -67 -5 -77 8 -71 12 4 16 25 19
90 2 46 2 84 2 84 -1 0 -6 -6 -12 -12z"/>
<path d="M827 1253 c-14 -14 -6 -23 16 -18 21 6 22 4 20 -62 l-2 -68 14 65 c8
36 12 71 10 78 -5 13 -47 17 -58 5z"/>
<path d="M218 1233 c-13 -3 -18 -17 -20 -55 -3 -53 -21 -75 -31 -37 -5 18 -10
20 -34 15 -15 -4 -32 -12 -37 -17 -16 -15 3 -23 29 -11 22 10 25 9 25 -9 0
-18 -2 -19 -15 -9 -13 11 -15 8 -14 -21 0 -19 4 -56 7 -84 6 -41 11 -50 27
-50 19 0 21 -12 37 -173 46 -462 66 -708 60 -714 -4 -4 -17 7 -29 25 -16 24
-23 54 -28 122 -4 49 -9 93 -11 97 -3 4 -7 40 -10 80 -6 99 -12 148 -19 178
-3 14 -7 39 -9 55 -2 17 -8 68 -14 115 -15 112 -17 160 -8 188 7 21 5 22 -21
16 -15 -4 -29 -7 -29 -8 -1 -1 2 -30 7 -66 29 -233 90 -712 93 -745 8 -69 10
-70 350 -72 166 -2 312 -3 325 -4 13 0 34 10 47 23 22 21 27 54 77 446 38 301
50 422 41 422 -6 0 -26 3 -43 6 -31 6 -31 6 -30 -32 1 -31 2 -34 8 -15 6 21 8
22 20 8 14 -18 13 -42 -18 -262 -6 -38 -10 -76 -11 -83 0 -7 -4 -11 -9 -7 -6
3 -8 -4 -6 -16 3 -12 -4 -114 -15 -227 -17 -179 -22 -208 -40 -226 l-20 -20
-1 54 c-2 52 -2 53 -8 15 l-6 -40 -120 -2 c-137 -3 -157 1 -129 21 16 12 19
28 19 112 0 112 11 134 68 134 48 0 57 15 57 97 l0 72 -37 6 c-70 11 -68 13
13 14 57 1 85 5 93 15 7 9 11 40 9 78 l-3 63 -145 8 c-102 6 -159 5 -188 -2
l-42 -12 0 -289 c0 -287 0 -289 22 -296 33 -10 5 -20 -78 -28 -57 -6 -75 -4
-87 8 -17 17 -27 74 -32 191 -2 44 -6 107 -9 140 -3 33 -8 102 -11 154 -3 52
-8 97 -9 100 -10 16 -15 180 -6 186 6 3 22 -3 36 -14 15 -11 30 -19 34 -16 4
2 24 -5 46 -15 21 -11 48 -20 61 -20 12 0 25 -4 28 -10 3 -5 11 -10 18 -10 19
0 -26 26 -68 40 -22 7 -60 23 -84 37 l-44 25 8 52 c11 76 21 265 14 260 -4 -2
-9 -41 -13 -86 -3 -46 -9 -111 -12 -146 l-7 -63 -28 27 c-19 18 -29 38 -30 58
0 30 -16 81 -19 61 -1 -5 -6 1 -11 14 -10 25 5 56 22 45 5 -3 16 2 25 10 23
23 34 20 34 -11 1 -25 2 -26 11 -10 8 14 7 23 -4 35 -8 9 -14 28 -12 42 1 14
3 30 4 36 2 22 52 2 63 -25 8 -19 12 -22 16 -11 3 8 10 18 16 22 8 6 8 8 -1 8
-6 0 -18 7 -26 15 -17 16 -54 25 -79 18z m572 -598 l0 -65 -103 0 -104 0 0
-30 0 -30 64 0 63 0 0 -65 0 -65 -62 0 -63 0 3 -125 3 -125 -73 0 -73 0 0 277
c0 174 4 281 10 285 6 4 83 8 173 8 l162 0 0 -65z"/>
<path d="M535 230 c16 -6 12 -9 -20 -12 l-40 -5 43 -1 c31 -2 42 2 42 13 0 9
-9 15 -22 14 -22 0 -22 -1 -3 -9z"/>
<path d="M458 1196 c-7 -39 -4 -55 8 -44 3 3 4 23 2 44 l-3 39 -7 -39z"/>
<path d="M366 1164 c-5 -13 -9 -14 -20 -5 -11 9 -15 7 -19 -10 -4 -15 -2 -19
10 -15 8 3 23 6 34 6 12 0 19 7 19 20 0 24 -15 26 -24 4z"/>
<path d="M900 1150 c0 -11 5 -20 11 -20 5 0 7 -5 3 -11 -3 -6 -1 -15 5 -19 7
-4 14 -33 16 -65 2 -31 8 -62 14 -68 8 -8 11 15 11 80 0 84 -2 93 -22 107 -30
21 -38 20 -38 -4z"/>
<path d="M297 1118 c-4 -12 -1 -25 5 -29 27 -17 39 19 14 40 -11 9 -15 7 -19
-11z"/>
<path d="M708 1124 c-5 -4 -8 -30 -8 -58 0 -35 3 -47 11 -39 5 5 9 32 7 58 -2
26 -6 43 -10 39z"/>
<path d="M796 1122 c-3 -5 -8 -29 -11 -53 -4 -24 -8 -54 -11 -66 -3 -16 0 -23
11 -23 8 0 15 8 16 18 0 9 4 43 8 75 6 51 1 71 -13 49z"/>
<path d="M457 988 c-20 -131 -21 -168 -6 -168 6 0 9 6 6 13 -3 7 2 24 9 38 14
24 14 24 12 -12 -3 -55 18 -77 79 -82 29 -2 50 1 47 5 -3 5 5 6 18 3 13 -3 40
1 60 10 21 8 49 15 63 15 14 0 25 4 25 10 0 5 7 6 17 3 10 -4 14 -2 10 4 -4 7
7 16 27 23 19 6 37 18 40 26 3 8 10 13 15 10 5 -4 12 0 14 6 9 21 7 -80 -3
-187 -5 -55 -14 -163 -20 -240 -5 -77 -13 -156 -16 -175 -3 -19 -2 -32 2 -28
6 7 19 134 54 536 6 67 13 129 16 137 10 25 -14 17 -53 -19 -53 -47 -109 -79
-172 -99 -81 -26 -86 -24 -88 31 -2 26 -9 72 -17 102 l-14 55 6 -80 c10 -140
13 -130 -38 -130 -42 0 -45 2 -51 30 -4 17 -7 53 -8 80 -1 38 -4 46 -12 35
-10 -15 -6 65 7 133 3 15 2 27 -3 27 -5 0 -16 -51 -26 -112z"/>
<path d="M526 1055 c-4 -22 -10 -52 -12 -66 -5 -24 -2 -26 21 -22 18 4 23 9
16 17 -6 7 -8 21 -5 32 2 10 0 33 -4 49 l-9 30 -7 -40z"/>
<path d="M867 1063 c-4 -3 -7 -33 -7 -66 0 -33 2 -58 5 -55 5 4 14 128 10 128
-1 0 -5 -3 -8 -7z"/>
<path d="M297 1023 c-3 -10 -8 -40 -12 -68 -4 -36 -3 -46 4 -35 6 8 11 32 11
53 0 23 4 36 10 32 6 -3 10 3 10 14 0 26 -17 28 -23 4z"/>
<path d="M611 1035 c-1 -19 27 -166 33 -172 3 -4 6 7 6 23 0 16 2 47 5 69 3
22 2 33 -2 25 -4 -11 -11 -3 -24 25 -10 22 -18 36 -18 30z"/>
<path d="M687 958 c-4 -12 -4 -24 -1 -27 3 -3 7 5 11 17 10 39 18 24 15 -27
-2 -27 1 -58 7 -68 8 -14 10 -2 11 55 0 64 -2 72 -19 72 -11 0 -21 -9 -24 -22z"/>
<path d="M338 900 c-2 -23 0 -46 4 -53 4 -7 8 12 8 41 0 62 -6 68 -12 12z"/>
<path d="M1310 598 l0 -68 75 0 76 0 -3 66 -3 66 -73 2 -72 1 0 -67z m109 33
c8 -1 11 -7 7 -18 -4 -9 -1 -20 5 -24 22 -13 -3 -29 -47 -29 -43 0 -44 1 -44
33 0 41 2 43 37 41 15 -1 34 -3 42 -3z"/>
<path d="M1622 595 l6 -45 -42 0 -41 0 1 -62 2 -63 38 -3 39 -3 -3 -144 -3
-143 71 -4 70 -3 0 148 0 147 33 0 32 0 0 65 0 65 -32 0 c-32 0 -33 1 -33 45
l0 45 -71 0 -72 0 5 -45z m113 -17 c6 -20 21 -38 36 -46 23 -10 27 -18 25 -49
-1 -31 -5 -38 -25 -43 -33 -8 -42 -43 -40 -170 l2 -105 -34 -7 c-18 -3 -36 -5
-40 -3 -3 3 -7 62 -8 131 -1 70 -6 133 -12 140 -5 6 -22 14 -37 17 -23 5 -27
10 -26 38 1 24 7 35 24 41 30 11 49 37 50 66 0 19 5 22 38 22 34 0 39 -3 47
-32z"/>
<path d="M1982 598 l3 -43 -37 3 -38 4 0 -69 0 -69 38 4 37 4 -3 -156 -4 -156
69 0 68 0 -3 156 -4 156 49 -3 48 -3 3 68 3 68 -48 -3 -48 -3 2 42 2 42 -70 0
-70 0 3 -42z m106 -15 c4 -27 38 -53 70 -53 21 0 23 -4 20 -37 -3 -35 -5 -38
-38 -41 -19 -2 -38 -7 -42 -11 -4 -3 -8 -68 -9 -143 -1 -146 -1 -148 -54 -148
-23 0 -23 1 -24 136 -1 75 -4 141 -7 145 -3 5 -19 12 -36 17 -26 7 -32 13 -31
35 2 45 2 47 20 47 25 0 53 30 53 57 0 22 4 24 38 21 30 -2 38 -7 40 -25z"/>
<path d="M2310 506 c0 -36 -5 -68 -10 -71 -15 -9 -10 -297 4 -307 6 -4 73 -8
149 -8 l137 0 0 65 0 65 -85 0 -85 0 0 50 0 50 85 0 85 0 0 110 0 110 -140 0
-140 0 0 -64z m249 -45 l-1 -79 -63 -4 c-79 -5 -95 -17 -95 -76 0 -62 28 -86
90 -78 58 7 72 -2 68 -45 l-3 -34 -101 1 c-55 0 -108 3 -117 7 -15 6 -17 21
-13 144 4 127 11 199 21 231 3 8 34 12 110 12 l105 0 -1 -79z"/>
<path d="M1020 330 l0 -200 55 0 55 0 0 116 0 116 55 -4 55 -5 0 65 0 65 -55
-6 -55 -6 0 30 c0 29 -1 29 -55 29 l-55 0 0 -200z m87 153 c9 -26 23 -33 66
-33 36 0 37 -1 37 -35 0 -34 -1 -35 -37 -35 -60 0 -65 -8 -69 -106 -5 -105 -7
-114 -32 -114 -25 0 -30 33 -26 180 2 63 3 125 4 138 0 17 6 22 25 22 15 0 28
-7 32 -17z"/>
<path d="M2680 518 c0 -2 -2 -94 -3 -206 l-2 -202 63 0 62 0 0 110 0 110 60 0
60 0 0 70 0 70 -60 0 c-57 0 -60 1 -60 25 0 24 -3 25 -60 25 -33 0 -60 -1 -60
-2z m96 -42 c8 -20 59 -39 89 -34 14 3 25 0 26 -6 6 -81 8 -78 -45 -82 -27 -2
-54 -8 -59 -13 -8 -8 -14 -73 -16 -173 -1 -24 -5 -28 -30 -28 -16 0 -31 6 -34
13 -4 10 -2 324 2 335 4 9 63 -1 67 -12z"/>
<path d="M1320 310 l0 -170 65 0 65 0 0 170 0 170 -65 0 -65 0 0 -170z m99 63
c0 -43 0 -82 1 -88 1 -5 2 -36 1 -68 l-1 -58 -32 3 -33 3 -3 143 -3 142 36 0
36 0 -2 -77z"/>
</g>
</svg>
